<?xml version="1.0" encoding="UTF-8"?> <svg xmlns="http://www.w3.org/2000/svg" width="150" height="151" viewBox="0 0 150 151" fill="none"><path d="M54.1784 112.911H50.1408C49.9061 112.911 49.7653 113.098 49.7653 113.286V116.197C49.7653 116.432 49.9531 116.573 50.1408 116.573H54.1784C55.0235 116.573 55.446 116.15 55.446 115.258V114.178C55.446 113.333 55.0235 112.911 54.1784 112.911Z" fill="#639582"></path><path d="M50.1408 108.967H53.2394C54.0845 108.967 54.507 108.545 54.507 107.653V106.855C54.507 105.963 54.0845 105.54 53.2394 105.54H50.1408C49.9061 105.54 49.7653 105.728 49.7653 105.916V108.545C49.7653 108.779 49.9531 108.967 50.1408 108.967Z" fill="#639582"></path><path d="M32.4414 25.5399C43.8029 14.1784 58.9203 7.93427 74.9766 7.93427C83.3804 7.93427 91.5024 9.62442 98.9672 12.9108C98.9672 12.9108 85.3052 63.8498 85.3052 63.8967C85.3522 63.7559 79.1081 40.6103 78.7794 39.6244C78.3099 37.9343 76.7137 36.6197 74.9297 36.6197C73.1926 36.6197 71.6433 37.8873 71.1738 39.5775C71.0799 39.8592 64.6949 63.7089 64.648 63.9437L58.1222 39.5775C57.5588 37.4648 55.3991 36.2441 53.2865 36.8075C51.1738 37.3709 49.9531 39.5305 50.5165 41.6432C50.5165 41.6432 60.8452 80.1878 60.8452 80.2347C61.3146 81.9249 63.0048 83.1925 64.7419 83.1455C66.6667 83.0986 68.0752 81.6432 68.5447 79.9061C68.7325 79.1549 74.601 57.3709 74.9766 55.8685L81.5024 80.2347C81.9719 81.9249 83.6621 83.1925 85.3991 83.1455C87.1362 83.0986 88.6386 81.831 89.155 80.1408C89.202 79.9531 106.103 16.9014 106.15 16.7136C110.235 19.2019 114.038 22.2066 117.512 25.6338C128.873 36.9953 135.117 52.1127 135.117 68.169C135.117 70.5634 134.977 72.9108 134.695 75.2582H115.117L124.132 41.6432C124.46 40.4695 124.178 39.1549 123.427 38.169C122.066 36.4319 119.953 36.6667 117.981 36.6667H107.324C105.164 36.6667 103.38 38.4507 103.38 40.6103C103.38 42.77 105.164 44.554 107.324 44.554H115.211L106.197 78.169C105.869 79.3897 106.15 80.7512 106.948 81.6901C108.357 83.4272 110.657 83.1455 112.629 83.1455H133.24C132.254 86.9484 130.939 90.6103 129.249 94.0845H20.6574C19.8123 92.3474 19.0611 90.5634 18.4038 88.7793L40.3287 50.8451L46.8545 75.2582H32.2067C30.047 75.2582 28.263 77.0423 28.263 79.2019C28.263 81.3615 30.047 83.1455 32.2067 83.1455H51.9719C53.2395 83.1455 54.4602 82.5352 55.1644 81.5023C56.2912 79.9061 55.8217 78.2629 55.3522 76.6197C54.8358 74.6479 46.0564 41.9718 45.6339 40.3286C45.3991 39.4836 45.1644 38.7324 44.601 38.0282C44.0376 37.3709 43.2865 36.9484 42.4414 36.7606C40.8452 36.4319 39.0611 37.23 38.263 38.6385L15.5869 77.7934C15.0705 74.6009 14.7888 71.3615 14.7888 68.0751C14.7888 52.0188 21.0799 36.9014 32.4414 25.5399ZM106.244 115.916C106.244 119.859 103.756 121.455 97.7466 121.455C91.6902 121.455 89.2489 119.859 89.2489 115.916V101.972C89.2489 101.362 89.4837 101.174 90.047 101.174H94.4602C95.0705 101.174 95.2583 101.408 95.2583 101.972V114.836C95.2583 115.915 95.9625 116.338 97.7466 116.338C99.5306 116.338 100.282 115.915 100.282 114.836V101.972C100.282 101.362 100.47 101.174 101.08 101.174H105.352C105.963 101.174 106.15 101.408 106.15 101.972V115.916H106.244ZM83.8498 120.235C83.8498 120.704 83.4743 121.033 83.0517 121.033H78.9203C78.4508 121.033 78.1221 120.657 78.1221 120.235V116.479C78.1221 116.244 77.9344 116.103 77.7466 116.103H74.9766H72.3006C72.0658 116.103 71.925 116.291 71.925 116.479V120.235C71.925 120.704 71.5494 121.033 71.1268 121.033H66.9954C66.5259 121.033 66.1973 120.657 66.1973 120.235V113.991C66.1973 112.864 66.7137 111.08 68.1221 108.31L71.7841 101.925C72.2067 101.315 72.5353 101.127 73.2395 101.127H75.1175H76.9954C77.6996 101.127 78.0282 101.315 78.4508 101.925L82.1128 108.31C83.5212 111.08 84.0376 112.864 84.0376 113.991V120.235H83.8498ZM60.7513 115.962C60.7513 119.343 57.8874 121.033 55.8217 121.033H45.0236C44.1785 121.033 43.8029 120.657 43.8029 120.235V101.972C43.8029 101.502 44.1785 101.174 44.601 101.174H55.0236C58.0752 101.174 59.7653 103.099 59.7653 105.54V107.089C59.7653 108.31 59.7184 109.343 58.9672 110.188C58.7325 110.423 58.7325 110.657 58.9203 110.751C60.1409 111.315 60.7043 112.77 60.7043 114.131V115.962H60.7513ZM26.8545 116.197C33.0987 122.441 40.3757 127.371 48.4977 130.798C56.9015 134.366 65.8217 136.15 74.9766 136.15C84.1785 136.15 93.0517 134.366 101.455 130.798C109.578 127.371 116.855 122.488 123.099 116.197C129.343 109.953 134.272 102.676 137.7 94.554C141.268 86.1502 143.052 77.23 143.052 68.0751C143.052 58.8732 141.268 50 137.7 41.5962C134.272 33.4742 129.39 26.1972 123.099 19.9531C116.855 13.7089 109.578 8.77934 101.455 5.35211C93.0517 1.78404 84.1315 0 74.9766 0C65.7747 0 56.9015 1.78404 48.4977 5.35211C40.3757 8.77934 33.0987 13.662 26.8545 19.9531C20.6104 26.1972 15.6808 33.4742 12.2536 41.5962C8.73248 49.9531 6.90149 58.8732 6.90149 68.0751C6.90149 77.277 8.68553 86.1502 12.2536 94.554C15.6808 102.676 20.6104 109.953 26.8545 116.197Z" fill="#639582"></path><path d="M75.3989 107.089C75.2112 106.714 74.6947 106.714 74.5069 107.089L72.4412 110.751C72.3004 111.033 72.4882 111.362 72.7698 111.362H74.9764H77.183C77.4647 111.362 77.6525 111.033 77.5116 110.751L75.3989 107.089Z" fill="#639582"></path><path d="M9.06103 103.099C8.92019 103.24 8.73239 103.333 8.5446 103.474C8.35681 103.615 8.21596 103.756 8.02817 103.897L5.91549 105.681L5.11737 104.178L7.79343 103.38C8.02817 103.333 8.21596 103.24 8.4507 103.193C8.6385 103.146 8.87324 103.052 9.06103 103.005C9.24883 102.958 9.43662 102.864 9.57747 102.817C9.34272 102.864 9.20188 103.005 9.06103 103.099ZM10.2347 100.892L0 103.568L0.985917 105.446L3.42723 104.742L4.50704 106.761L2.58216 108.404L3.56808 110.235L11.4085 103.146L10.2347 100.892Z" fill="#639582"></path><path d="M13.0515 110.282L9.7182 112.535C9.29567 112.817 8.92008 113.005 8.59144 113.192C8.2628 113.333 7.98111 113.38 7.74637 113.38C7.51163 113.333 7.27689 113.192 7.13604 112.958C6.9952 112.723 6.9952 112.488 7.18299 112.253C7.37078 111.972 7.69942 111.69 8.16891 111.361L11.9717 108.826L10.9389 107.277L6.66656 110.141C6.15013 110.469 5.77454 110.845 5.49285 111.174C5.21116 111.549 5.07031 111.925 5.07031 112.3C5.07031 112.676 5.16421 113.052 5.4459 113.474C5.58675 113.709 5.77454 113.897 5.96233 113.99C6.15013 114.131 6.38487 114.225 6.61961 114.272C6.85435 114.319 7.08909 114.319 7.37078 114.272L7.41773 114.366L6.7135 115.117L7.51163 116.338L14.0374 111.972L13.0515 110.282Z" fill="#639582"></path><path d="M14.8357 115.352C14.9766 115.399 15.1643 115.493 15.3052 115.681C15.446 115.869 15.5869 116.103 15.6808 116.385C15.7747 116.667 15.8216 116.901 15.8216 117.183L17.277 116.667C17.2301 116.291 17.1362 115.915 16.9953 115.587C16.8545 115.258 16.6667 114.93 16.432 114.648C15.9625 114.084 15.446 113.709 14.8827 113.615C14.3193 113.521 13.7559 113.709 13.1925 114.131C12.9108 114.366 12.6761 114.601 12.5352 114.883C12.3944 115.164 12.3005 115.446 12.2535 115.775C12.2066 116.103 12.2535 116.432 12.3005 116.808C12.3944 117.183 12.4413 117.465 12.4413 117.7C12.4413 117.934 12.4413 118.075 12.3474 118.169C12.3005 118.263 12.2066 118.404 12.1127 118.451C11.9249 118.592 11.7371 118.638 11.5493 118.638C11.3615 118.592 11.1737 118.498 11.0329 118.263C10.7981 117.981 10.6573 117.7 10.5634 117.371C10.4695 117.042 10.3756 116.714 10.3756 116.385L8.96716 117.512C9.06106 117.84 9.15496 118.169 9.2958 118.498C9.43665 118.826 9.67139 119.108 9.90613 119.437C10.2348 119.859 10.6104 120.141 10.9859 120.329C11.3615 120.516 11.7371 120.563 12.1596 120.469C12.5822 120.376 12.9578 120.188 13.3803 119.859C13.7089 119.624 13.9437 119.343 14.0845 119.061C14.2254 118.779 14.3193 118.451 14.3193 118.122C14.3193 117.793 14.3193 117.465 14.2723 117.089C14.2254 116.714 14.1784 116.432 14.1784 116.197C14.1784 116.009 14.1784 115.822 14.2254 115.728C14.2723 115.634 14.3193 115.54 14.4601 115.446C14.554 115.352 14.6949 115.305 14.8357 115.352Z" fill="#639582"></path><path d="M15.9237 119.124L14.6046 120.326L17.007 122.964L18.3261 121.763L15.9237 119.124Z" fill="#639582"></path><path d="M26.1032 124.46C25.9154 124.695 25.6807 124.883 25.446 125.024C25.1643 125.164 24.9295 125.211 24.6009 125.211C24.6009 124.93 24.6948 124.648 24.7887 124.366C24.8826 124.085 25.0234 123.897 25.1643 123.709C25.3521 123.474 25.5399 123.333 25.7276 123.287C25.9154 123.24 26.0563 123.287 26.1971 123.38C26.338 123.474 26.3849 123.662 26.3849 123.803C26.3849 124.038 26.291 124.225 26.1032 124.46ZM22.4413 129.202C22.1596 129.249 21.9248 129.249 21.737 129.202C21.5492 129.155 21.3145 129.061 21.1267 128.92C20.892 128.733 20.7981 128.451 20.7981 128.169C20.845 127.84 20.9859 127.559 21.2206 127.277C21.3615 127.089 21.5023 126.948 21.6901 126.855C21.8309 126.761 22.0187 126.667 22.1596 126.62C22.3474 126.573 22.5352 126.526 22.723 126.526L22.4413 129.202ZM27.1361 122.348C26.7605 122.019 26.3849 121.831 26.0093 121.737C25.6338 121.643 25.2112 121.69 24.8356 121.784C24.46 121.925 24.1314 122.16 23.8028 122.535C23.615 122.77 23.4272 123.005 23.2863 123.287C23.1455 123.521 23.0516 123.803 23.0046 124.085C22.9577 124.366 22.8638 124.648 22.8638 124.977C22.3943 124.883 22.0187 124.883 21.6431 124.977C21.2676 125.024 20.9389 125.164 20.6103 125.352C20.2816 125.54 20 125.775 19.7183 126.103C19.3427 126.526 19.061 126.995 18.9671 127.418C18.8262 127.887 18.8262 128.31 18.9671 128.779C19.1079 129.202 19.3896 129.625 19.8591 130C20.1408 130.235 20.3755 130.423 20.6572 130.564C20.9389 130.704 21.2206 130.798 21.4553 130.845C21.737 130.892 22.0187 130.939 22.3474 130.939L22.2065 131.878L23.9906 133.427L24.1784 130.845C24.7417 130.657 25.2582 130.423 25.8215 130.094C26.338 129.765 26.8075 129.437 27.23 129.061L25.7276 127.747C25.446 127.981 25.2112 128.169 24.9765 128.357C24.7417 128.545 24.507 128.686 24.2723 128.779L24.507 126.761C25.0704 126.808 25.6338 126.714 26.1032 126.526C26.5727 126.338 26.9953 126.056 27.3239 125.681C27.6525 125.305 27.8403 124.93 27.9342 124.554C28.0281 124.179 27.9812 123.803 27.8873 123.427C27.7464 123.052 27.5117 122.676 27.1361 122.348Z" fill="#639582"></path><path d="M40.1877 131.784L36.6666 135.728C36.4788 135.962 36.2441 136.197 36.0563 136.432C35.8216 136.666 35.6338 136.948 35.446 137.183C35.2582 137.418 35.0704 137.652 34.8826 137.887C34.9765 137.652 35.0704 137.465 35.1643 137.23C35.2582 136.995 35.3521 136.76 35.446 136.526C35.5399 136.291 35.6338 136.056 35.7277 135.868C35.8216 135.681 35.8685 135.446 35.9624 135.305L37.8403 130.328L36.4319 129.483L32.8169 133.38C32.676 133.521 32.5821 133.662 32.4413 133.803C32.3004 133.99 32.1596 134.131 31.9718 134.319C31.8309 134.507 31.6431 134.695 31.5023 134.882C31.3615 135.07 31.1737 135.258 31.0328 135.446C31.1267 135.258 31.2206 135.07 31.3145 134.835C31.4084 134.601 31.5023 134.413 31.5962 134.178C31.6901 133.943 31.784 133.709 31.8779 133.521C31.9718 133.286 32.0657 133.098 32.1126 132.911L34.0375 127.981L32.3943 126.995L28.7793 136.807L30.7042 137.981L34.0845 134.272C34.2253 134.131 34.3662 133.943 34.507 133.803C34.6478 133.615 34.7887 133.474 34.9295 133.286C35.0704 133.098 35.2112 132.958 35.3521 132.77C35.4929 132.582 35.5868 132.441 35.7277 132.3C35.6338 132.535 35.5399 132.723 35.399 132.958C35.3051 133.145 35.2112 133.38 35.1173 133.568C35.0234 133.756 34.9765 133.943 34.8826 134.131C34.7887 134.319 34.7417 134.46 34.6948 134.648L32.9577 139.296L34.8826 140.469L41.9718 132.77L40.1877 131.784Z" fill="#639582"></path><path d="M42.3474 137.418C42.6291 137.23 42.9108 137.23 43.1925 137.324C43.3803 137.418 43.5211 137.559 43.5681 137.747C43.662 137.934 43.662 138.169 43.615 138.451C43.5681 138.733 43.4742 139.014 43.3333 139.343L41.5023 138.498C41.784 137.981 42.0657 137.606 42.3474 137.418ZM44.3662 141.362L44.7887 140.423C45.0704 139.765 45.2582 139.155 45.3051 138.592C45.3521 138.028 45.2113 137.512 44.9765 137.089C44.7418 136.667 44.3192 136.291 43.8028 136.057C43.2394 135.775 42.676 135.728 42.1596 135.822C41.6432 135.916 41.1737 136.244 40.7042 136.667C40.2347 137.136 39.8591 137.747 39.4836 138.592C39.1549 139.343 38.9202 140.047 38.8732 140.657C38.8263 141.315 38.9202 141.831 39.2019 142.348C39.4836 142.817 39.953 143.24 40.6103 143.521C40.9859 143.709 41.3615 143.803 41.6901 143.897C42.0657 143.991 42.3943 143.991 42.7699 143.944L43.4272 142.535C43.0516 142.582 42.676 142.582 42.3944 142.535C42.0657 142.488 41.784 142.395 41.5023 142.254C41.0328 142.066 40.7981 141.737 40.7042 141.362C40.6103 140.986 40.7042 140.47 40.9859 139.812L44.3662 141.362Z" fill="#639582"></path><path d="M47.5003 137.744L44.6924 145.115L46.4473 145.783L49.2552 138.413L47.5003 137.744Z" fill="#639582"></path><path d="M49.4367 135.164C49.108 135.023 48.8263 135.023 48.5916 135.117C48.3568 135.211 48.216 135.446 48.0752 135.774C47.9343 136.103 47.9343 136.385 48.0282 136.62C48.1221 136.854 48.3568 137.042 48.6385 137.136C48.9672 137.277 49.2019 137.277 49.4367 137.136C49.6714 137.042 49.8122 136.807 49.9531 136.479C50.0939 136.15 50.0939 135.868 50 135.634C50 135.493 49.7653 135.305 49.4367 135.164Z" fill="#639582"></path><path d="M52.2535 141.08L53.615 141.502L54.0845 140L52.723 139.577L53.2394 137.981L52.0187 137.605L51.0798 139.108L50.0469 139.296L49.7183 140.235L50.4694 140.469L49.2488 144.272C49.061 144.789 49.014 145.258 49.014 145.681C49.014 146.056 49.1549 146.385 49.3427 146.667C49.5774 146.901 49.8591 147.136 50.3286 147.277C50.6103 147.371 50.845 147.418 51.0798 147.418C51.3145 147.418 51.5962 147.418 51.784 147.371L52.2535 145.962C52.0657 145.962 51.9248 146.009 51.784 145.962C51.6432 145.962 51.5023 145.915 51.3615 145.868C51.1267 145.821 51.0328 145.681 50.9859 145.493C50.9389 145.305 50.9859 145.07 51.0798 144.789L52.2535 141.08Z" fill="#639582"></path><path d="M57.9342 144.225L55.9624 143.756C56.1032 143.146 56.338 142.723 56.5727 142.488C56.8075 142.254 57.0892 142.16 57.3708 142.254C57.5586 142.3 57.7464 142.394 57.8403 142.582C57.9342 142.77 58.0281 142.958 58.0281 143.239C58.0751 143.521 58.0281 143.85 57.9342 144.225ZM59.061 141.596C58.7324 141.221 58.2629 140.939 57.6995 140.845C57.0892 140.704 56.5258 140.751 56.0563 140.939C55.5868 141.174 55.1643 141.549 54.7887 142.066C54.46 142.629 54.1784 143.333 53.9436 144.178C53.7558 144.977 53.7089 145.728 53.7558 146.338C53.8028 146.995 54.0375 147.512 54.4131 147.934C54.7887 148.357 55.3051 148.639 56.0093 148.826C56.4319 148.92 56.8075 148.967 57.1831 148.967C57.5586 148.967 57.8873 148.92 58.2629 148.779L58.6385 147.277C58.2629 147.418 57.9342 147.465 57.6056 147.512C57.277 147.512 56.9953 147.512 56.6666 147.418C56.1971 147.324 55.8685 147.042 55.6807 146.667C55.5399 146.291 55.4929 145.775 55.6807 145.117L59.3427 146.009L59.5774 144.977C59.7652 144.272 59.8122 143.615 59.7183 143.052C59.6244 142.441 59.3896 141.972 59.061 141.596Z" fill="#639582"></path><path d="M65.0233 142.207C64.7886 142.16 64.5539 142.207 64.3191 142.301C64.0844 142.394 63.8966 142.535 63.7088 142.723C63.521 142.911 63.3802 143.146 63.2393 143.38H63.1454L63.0985 142.066L61.69 141.831L60.4694 149.624L62.3003 149.906L62.9107 145.963C62.9576 145.681 63.0515 145.399 63.1454 145.164C63.2393 144.93 63.3802 144.742 63.521 144.601C63.6618 144.46 63.8027 144.319 63.9905 144.272C64.1783 144.225 64.3661 144.178 64.6008 144.225C64.7417 144.225 64.8356 144.272 64.9764 144.319C65.0703 144.366 65.1642 144.413 65.2581 144.46L65.7276 142.535C65.5867 142.488 65.4928 142.441 65.3989 142.394C65.2581 142.207 65.1172 142.207 65.0233 142.207Z" fill="#639582"></path><path d="M70.2347 146.76C70.1878 147.606 70.0469 148.263 69.8591 148.638C69.6713 149.014 69.3896 149.202 69.061 149.202C68.6854 149.155 68.4037 148.967 68.2629 148.591C68.122 148.216 68.0751 147.606 68.122 146.807L68.169 146.432C68.2159 145.962 68.2629 145.54 68.3568 145.258C68.4507 144.929 68.5915 144.695 68.7324 144.507C68.9201 144.366 69.1549 144.272 69.3896 144.272C69.7183 144.319 69.953 144.507 70.0939 144.929C70.2817 145.352 70.3286 145.915 70.2347 146.76ZM70.1878 142.676C69.8122 142.629 69.4835 142.723 69.2018 142.864C68.9201 143.005 68.6385 143.286 68.4037 143.662H68.3568C68.4037 143.38 68.4507 143.099 68.4507 142.864C68.4976 142.629 68.4976 142.441 68.4976 142.3L68.6854 139.577L66.8075 139.437L65.9624 150.329L67.4647 150.422L67.7934 149.577H67.8873C68.122 149.953 68.3568 150.235 68.5915 150.422C68.8262 150.563 69.1549 150.657 69.4835 150.704C69.953 150.751 70.3755 150.61 70.7511 150.329C71.1267 150.047 71.4084 149.577 71.6431 148.967C71.8779 148.357 72.0187 147.652 72.0657 146.807C72.1596 145.54 72.0187 144.507 71.6901 143.803C71.4084 143.145 70.892 142.77 70.1878 142.676Z" fill="#639582"></path><path d="M74.9765 139.906C74.6479 139.906 74.3662 140 74.1784 140.141C73.9906 140.329 73.9437 140.61 73.8967 140.939C73.8967 141.268 73.9906 141.549 74.1315 141.737C74.3193 141.925 74.554 142.019 74.8826 142.019C75.2113 142.019 75.493 141.925 75.6338 141.784C75.8216 141.596 75.9155 141.362 75.9155 140.986C75.9155 140.657 75.8216 140.376 75.6808 140.188C75.5869 140 75.3052 139.906 74.9765 139.906Z" fill="#639582"></path><path d="M74.0133 142.935L73.885 150.821L75.7628 150.852L75.891 142.965L74.0133 142.935Z" fill="#639582"></path><path d="M79.1586 139.817L77.2823 139.895L77.7346 150.824L79.6108 150.746L79.1586 139.817Z" fill="#639582"></path><path d="M84.9767 148.31C84.8358 148.685 84.6011 148.92 84.2255 148.967C83.8968 149.014 83.6152 148.826 83.4274 148.404C83.1926 148.028 83.0518 147.371 82.9579 146.526C82.864 145.728 82.864 145.117 83.0048 144.695C83.0987 144.272 83.3335 144.037 83.6621 143.99C84.0377 143.944 84.3663 144.084 84.5541 144.413C84.7889 144.742 84.9297 145.305 85.0236 146.056L85.0706 146.526C85.1644 147.324 85.1175 147.934 84.9767 148.31ZM84.2724 139.343L84.6011 142.066C84.6011 142.206 84.648 142.394 84.695 142.629C84.7419 142.864 84.7889 143.098 84.8358 143.427H84.7889C84.648 143.192 84.4602 143.005 84.2724 142.817C84.0846 142.676 83.8499 142.582 83.6621 142.488C83.4274 142.441 83.1926 142.394 82.9579 142.441C82.2537 142.535 81.7372 142.958 81.4086 143.709C81.0799 144.46 80.986 145.493 81.1738 146.76C81.3147 148.028 81.6433 149.014 82.1128 149.671C82.5823 150.328 83.1926 150.657 83.9438 150.563C84.1785 150.516 84.4133 150.469 84.6011 150.375C84.7889 150.282 84.9297 150.141 85.0706 150C85.2114 149.812 85.3522 149.624 85.4931 149.39H85.587L85.9626 150.235L87.4649 150.047L86.2443 139.155L84.2724 139.343Z" fill="#639582"></path><path d="M91.6902 141.174L92.5352 145.071C92.6291 145.54 92.6761 145.963 92.723 146.338C92.723 146.714 92.6761 146.996 92.5822 147.183C92.4413 147.418 92.2536 147.512 91.9249 147.606C91.6902 147.653 91.4554 147.559 91.2676 147.277C91.0798 146.996 90.939 146.573 90.7981 146.01L89.8592 141.55L88.0282 141.925L89.108 146.949C89.2489 147.559 89.4366 148.028 89.6714 148.404C89.9061 148.78 90.1878 149.061 90.5634 149.249C90.892 149.39 91.3146 149.437 91.7841 149.343C92.0658 149.296 92.2536 149.202 92.4883 149.061C92.6761 148.92 92.8639 148.78 92.9578 148.545C93.0986 148.357 93.1925 148.122 93.2395 147.841H93.3334L93.7559 148.78L95.2113 148.498L93.5681 140.798L91.6902 141.174Z" fill="#639582"></path><path d="M100.094 139.39C99.6245 139.061 99.0611 138.967 98.4038 139.155C98.1691 139.249 97.9343 139.343 97.7465 139.483C97.5587 139.624 97.4179 139.812 97.324 140.047C97.2301 140.282 97.1362 140.516 97.0893 140.798L96.9954 140.845L96.5259 139.953L95.1174 140.375L97.4648 147.887L99.2489 147.324L98.1221 143.709C97.8404 142.817 97.6996 142.159 97.7465 141.737C97.7935 141.314 97.9813 141.08 98.3569 140.939C98.6386 140.845 98.9202 140.939 99.108 141.174C99.2958 141.408 99.4836 141.784 99.6245 142.3L101.033 146.76L102.817 146.197L101.268 141.221C100.986 140.375 100.61 139.765 100.094 139.39Z" fill="#639582"></path><path d="M108.92 145.399C108.873 145.634 108.779 145.821 108.592 146.009C108.404 146.197 108.122 146.338 107.793 146.479C107.465 146.62 107.183 146.667 106.948 146.573C106.714 146.479 106.526 146.338 106.385 146.009C106.291 145.775 106.244 145.634 106.244 145.446C106.244 145.258 106.291 145.164 106.338 145.023C106.432 144.929 106.526 144.836 106.667 144.789L107.606 144.413C107.84 144.319 108.028 144.272 108.169 144.225C108.31 144.225 108.451 144.225 108.545 144.319C108.639 144.413 108.732 144.507 108.826 144.695C108.92 144.929 108.967 145.164 108.92 145.399ZM104.977 140.704C104.789 140.516 104.601 140.235 104.413 139.859C104.225 139.437 104.178 139.108 104.178 138.826C104.225 138.544 104.319 138.404 104.554 138.31C104.789 138.216 104.977 138.263 105.211 138.404C105.399 138.544 105.587 138.873 105.775 139.296C105.963 139.718 106.009 140.047 106.009 140.282C105.963 140.563 105.869 140.704 105.634 140.798C105.399 140.939 105.164 140.892 104.977 140.704ZM109.249 142.441C108.779 142.253 108.31 142.253 107.7 142.535L106.479 143.052C106.291 143.145 106.15 143.145 106.056 143.192C105.916 143.192 105.822 143.192 105.728 143.145C105.634 143.098 105.587 143.005 105.54 142.911C105.493 142.77 105.446 142.629 105.493 142.535C105.54 142.441 105.54 142.3 105.587 142.206C105.728 142.206 105.916 142.16 106.15 142.066C106.901 141.737 107.418 141.267 107.653 140.657C107.887 140.047 107.84 139.343 107.512 138.591C107.418 138.357 107.324 138.169 107.23 138.028C107.136 137.887 106.995 137.699 106.855 137.606L107.653 137.042L107.23 136.009L105.117 136.901C105.024 136.901 104.977 136.901 104.836 136.901C104.742 136.901 104.648 136.948 104.507 136.995C104.366 137.042 104.225 137.089 104.085 137.136C103.568 137.371 103.146 137.652 102.864 137.981C102.582 138.31 102.441 138.732 102.394 139.155C102.347 139.624 102.441 140.094 102.676 140.61C102.864 141.08 103.099 141.455 103.427 141.737C103.756 142.066 104.085 142.206 104.413 142.3C104.272 142.582 104.178 142.817 104.132 143.052C104.085 143.286 104.132 143.521 104.225 143.803C104.319 144.037 104.46 144.225 104.695 144.366C104.883 144.507 105.117 144.554 105.352 144.554C104.977 144.836 104.742 145.164 104.648 145.587C104.507 146.009 104.554 146.385 104.742 146.807C105.024 147.465 105.446 147.887 106.056 148.028C106.667 148.216 107.324 148.122 108.169 147.793C109.249 147.324 109.953 146.76 110.329 146.056C110.704 145.352 110.704 144.601 110.329 143.709C110.047 143.098 109.718 142.676 109.249 142.441Z" fill="#639582"></path><path d="M113.615 137.699C113.38 137.512 113.052 137.371 112.77 137.277C112.441 137.183 112.113 137.136 111.737 137.136C111.362 137.089 111.08 137.089 110.845 137.042C110.657 136.995 110.516 136.948 110.376 136.901C110.282 136.854 110.188 136.76 110.141 136.62C110.047 136.432 110.047 136.291 110.094 136.15C110.141 136.009 110.282 135.868 110.47 135.775C110.704 135.634 110.939 135.587 111.221 135.587C111.502 135.587 111.737 135.587 112.019 135.587L111.831 134.084C111.455 134.037 111.08 134.084 110.751 134.131C110.423 134.178 110.047 134.319 109.718 134.507C109.061 134.836 108.639 135.305 108.404 135.868C108.216 136.432 108.263 136.995 108.592 137.606C108.779 137.934 108.967 138.216 109.202 138.404C109.437 138.591 109.718 138.779 110.047 138.873C110.376 138.967 110.704 139.014 111.08 139.014C111.455 139.014 111.737 139.014 111.972 139.061C112.16 139.108 112.347 139.155 112.441 139.249C112.535 139.343 112.629 139.437 112.676 139.53C112.77 139.718 112.817 139.906 112.723 140.094C112.676 140.282 112.488 140.422 112.254 140.516C111.972 140.657 111.643 140.751 111.268 140.798C110.892 140.845 110.563 140.845 110.282 140.798L111.127 142.394C111.455 142.394 111.784 142.347 112.16 142.253C112.488 142.16 112.817 142.019 113.193 141.831C113.662 141.596 114.038 141.314 114.272 140.939C114.507 140.61 114.648 140.235 114.648 139.812C114.648 139.39 114.554 138.967 114.272 138.498C114.085 138.169 113.897 137.887 113.615 137.699Z" fill="#639582"></path><path d="M117.465 137.465L116.854 131.925L116.197 130.845L112.488 133.146L113.286 134.507L115.258 133.287L115.822 138.967L116.432 139.953L120.423 137.512L119.577 136.197L117.465 137.465Z" fill="#639582"></path><path d="M120.329 131.831C119.953 131.315 119.765 130.892 119.765 130.564C119.765 130.235 119.859 129.953 120.141 129.812C120.329 129.672 120.469 129.625 120.704 129.672C120.892 129.718 121.127 129.812 121.315 129.953C121.549 130.141 121.737 130.376 121.972 130.657L120.329 131.831ZM124.178 133.005C123.991 133.24 123.756 133.474 123.474 133.662C123.052 133.944 122.676 134.038 122.3 133.944C121.925 133.803 121.502 133.474 121.08 132.911L124.131 130.704L123.521 129.859C123.099 129.249 122.629 128.826 122.16 128.498C121.69 128.169 121.174 128.028 120.704 128.028C120.188 128.028 119.718 128.216 119.249 128.545C118.732 128.92 118.404 129.343 118.263 129.859C118.122 130.376 118.122 130.939 118.31 131.549C118.498 132.16 118.826 132.817 119.39 133.568C119.859 134.225 120.376 134.742 120.892 135.118C121.408 135.493 121.972 135.681 122.535 135.681C123.099 135.681 123.662 135.446 124.272 135.024C124.601 134.789 124.883 134.507 125.117 134.226C125.352 133.944 125.54 133.662 125.681 133.287L124.789 132.019C124.554 132.441 124.366 132.77 124.178 133.005Z" fill="#639582"></path><path d="M126.714 123.38C126.15 123.239 125.587 123.427 125.07 123.85C124.883 124.038 124.742 124.225 124.601 124.413C124.507 124.648 124.413 124.836 124.413 125.07C124.413 125.305 124.413 125.54 124.507 125.822L124.413 125.915L123.615 125.305L122.488 126.291L127.653 132.207L129.061 130.986L126.573 128.122C125.962 127.418 125.587 126.854 125.446 126.479C125.305 126.103 125.399 125.775 125.681 125.493C125.916 125.305 126.15 125.258 126.432 125.399C126.714 125.54 127.042 125.822 127.371 126.244L130.423 129.765L131.831 128.545L128.404 124.601C127.887 123.944 127.324 123.521 126.714 123.38Z" fill="#639582"></path><path d="M134.554 123.709C134.46 123.85 134.413 123.943 134.319 124.037C134.178 124.178 133.991 124.272 133.803 124.225C133.615 124.178 133.427 124.037 133.193 123.85L130.423 121.127L131.409 120.141L130.282 119.061L129.296 120.047L128.122 118.873L127.23 119.765L128.122 121.267L127.84 122.253L128.545 122.958L129.108 122.394L131.925 125.164C132.347 125.54 132.723 125.821 133.052 126.009C133.427 126.15 133.756 126.197 134.085 126.15C134.413 126.056 134.742 125.868 135.07 125.54C135.258 125.352 135.446 125.117 135.54 124.929C135.681 124.695 135.775 124.507 135.822 124.272L134.742 123.239C134.695 123.427 134.648 123.568 134.554 123.709Z" fill="#639582"></path><path d="M134.695 118.638C134.554 118.451 134.46 118.216 134.366 118.028C134.319 117.84 134.319 117.653 134.319 117.465C134.366 117.277 134.46 117.089 134.601 116.948C134.695 116.854 134.789 116.761 134.836 116.667C134.93 116.573 135.024 116.526 135.118 116.479L133.709 115.023C133.615 115.117 133.521 115.164 133.427 115.211C133.333 115.258 133.287 115.352 133.193 115.446C133.052 115.634 132.911 115.869 132.911 116.103C132.864 116.338 132.911 116.62 132.958 116.854C133.005 117.136 133.099 117.371 133.24 117.606L133.193 117.653L132.019 116.995L131.08 118.075L137.042 123.239L138.263 121.831L135.211 119.202C135.024 119.014 134.836 118.826 134.695 118.638Z" fill="#639582"></path><path d="M136.573 111.314L139.812 113.662C140.235 113.944 140.517 114.225 140.798 114.507C141.033 114.742 141.221 115.023 141.268 115.258C141.315 115.493 141.268 115.728 141.08 116.009C140.939 116.244 140.704 116.291 140.376 116.197C140.047 116.103 139.671 115.915 139.202 115.54L135.493 112.817L134.366 114.319L138.498 117.371C138.967 117.746 139.437 117.981 139.859 118.075C140.282 118.216 140.704 118.216 141.08 118.075C141.456 117.981 141.784 117.699 142.066 117.324C142.207 117.089 142.348 116.901 142.395 116.667C142.441 116.432 142.441 116.197 142.441 115.962C142.395 115.728 142.301 115.493 142.207 115.258L142.254 115.164L143.193 115.587L144.038 114.413L137.7 109.765L136.573 111.314Z" fill="#639582"></path><path d="M143.803 103.287C144.131 103.334 144.507 103.474 145.023 103.756L149.061 106.01L150 104.366L145.493 101.831C144.648 101.362 143.944 101.174 143.38 101.221C142.817 101.268 142.347 101.596 142.019 102.207C141.831 102.582 141.737 102.958 141.737 103.287C141.784 103.615 141.878 103.944 142.113 104.319L142.066 104.413C141.737 104.366 141.408 104.366 141.08 104.507C140.751 104.648 140.469 104.883 140.282 105.305C140.141 105.54 140.047 105.822 140 106.057C139.953 106.291 139.953 106.573 140.047 106.808C140.094 107.042 140.235 107.277 140.376 107.465L140.329 107.559L139.343 107.23L138.638 108.545L145.493 112.395L146.432 110.751L143.145 108.92C142.629 108.639 142.253 108.404 141.925 108.122C141.643 107.888 141.408 107.653 141.314 107.418C141.221 107.183 141.221 106.949 141.361 106.714C141.455 106.573 141.549 106.479 141.737 106.432C141.878 106.385 142.113 106.432 142.347 106.479C142.582 106.573 142.864 106.667 143.239 106.855L147.277 109.155L148.216 107.512L144.742 105.54C144.037 105.165 143.568 104.789 143.286 104.46C143.005 104.132 142.958 103.803 143.145 103.521C143.239 103.38 143.474 103.287 143.803 103.287Z" fill="#639582"></path></svg> 